<svg width="37" height="35" viewBox="0 0 37 35" fill="none" xmlns="http://www.w3.org/2000/svg">
<path d="M23.7236 20.5471H22.5411L22.122 20.1651C23.5889 18.552 24.472 16.4578 24.472 14.1797C24.472 9.09993 20.1163 4.98232 14.7428 4.98232C9.36938 4.98232 5.01373 9.09993 5.01373 14.1797C5.01373 19.2595 9.36938 23.3771 14.7428 23.3771C17.1527 23.3771 19.3679 22.5423 21.0743 21.1556L21.4784 21.5518V22.6696L28.9623 29.7304L31.1925 27.6221L23.7236 20.5471ZM14.7428 20.5471C11.0158 20.5471 8.00731 17.703 8.00731 14.1797C8.00731 10.6564 11.0158 7.81229 14.7428 7.81229C18.4698 7.81229 21.4784 10.6564 21.4784 14.1797C21.4784 17.703 18.4698 20.5471 14.7428 20.5471Z" fill="#555255"/>
</svg>
